<svg version="1" xmlns="http://www.w3.org/2000/svg" width="533.333" height="533.333" viewBox="0 0 400.000000 400.000000"><path d="M0 109.8v109.8l21.5 20.7L43 261h87v47.1c0 25.8.4 46.8.9 46.5.4-.3.6.5.4 1.8-.4 1.9 3.1 5.7 20.7 22.7 11.6 11.2 21.4 20.5 21.8 20.6.4.1 23.6-31 51.5-69.2l50.8-69.5H400V41.4l-21.6-20.7L356.8 0H0v109.8zm343-1.8v100H224.4l-43 58.9-42.9 58.8-.3-58.8-.2-58.9H8V8h335v100z"/><path d="M60.9 45.3c-8.3 3.1-12.5 8-15.4 17.8-1.4 4.9-1.5 11.3-1.3 47.5l.3 41.9 2.8 5.8c3.4 6.8 8.1 10.4 14.9 11.3 5.4.7 10.6-.8 14.7-4.2l2.9-2.4 1.1 3c1 3 1.2 3.1 6.3 2.8l5.3-.3.3-30.8.2-30.7H67v16h7v12.8c0 14-1 17.2-5.5 17.2-5.4 0-5.5-.9-5.5-45.7 0-40 .1-41.4 2-43.3 1.1-1.1 2.7-2 3.5-2 .8 0 2.4.9 3.5 2 1.8 1.8 2 3.3 2 14v12h19.2l-.4-13.8c-.4-14.5-1.6-19-7.2-25-5.2-5.8-17.3-8.7-24.7-5.9zM113 57.5V67h17v103h19V67h17V48h-53v9.5zM182 109v61h17.9l.3-23.3c.3-20.8.5-23.6 2.3-27.6l2.1-4.3 3.8 16.8c2.1 9.3 4.9 21.7 6.3 27.6l2.5 10.8h8.4c6.8 0 8.4-.3 8.4-1.5 0-.9-3.8-18.7-8.5-39.7-4.7-21-8.5-38.9-8.5-39.8 0-.8 3.4-10 7.5-20.3S232 49.6 232 49c0-.6-3.4-1-8.4-1h-8.4l-4.1 11.2c-2.2 6.2-5.6 15.6-7.5 20.8l-3.5 9.5-.3-20.5-.3-20.5-8.7-.3-8.8-.3V109zM254 109v61h17l.1-34.8c0-19.1.3-34 .7-33.2.3.8 4.7 16.3 9.7 34.5l9.2 33 8.1.3 8.2.3V48h-17l-.2 34-.3 34-6.3-22.8c-3.4-12.5-7.7-27.8-9.4-34L270.7 48H254v61z"/></svg>