<?xml version="1.0" encoding="UTF-8"?>
<svg width="200px" height="200px" viewBox="0 0 200 200" version="1.1" xmlns="http://www.w3.org/2000/svg" xmlns:xlink="http://www.w3.org/1999/xlink">
    <!-- Generator: Sketch 48.2 (47327) - http://www.bohemiancoding.com/sketch -->
    <title>Group 2</title>
    <desc>Created with Sketch.</desc>
    <defs></defs>
    <g id="Page-1" stroke="none" stroke-width="1" fill="none" fill-rule="evenodd">
        <g id="Group-2" fill-rule="nonzero">
            <polygon id="Shape" fill="#1A1A1A" points="178.249668 0 28.7610274 20.9320449 21.7347178 20.9320449 -1.7527646e-14 109.585411 21.7347178 130.517456 87.0013272 130.517456 65.2666094 179.067955 87.0013272 200 100.929034 181.000623 137.903037 130.517456 200 130.517456 200 119.092893 200 20.9320449"></polygon>
            <polygon id="Shape" fill="#FFFFFF" points="67.3397039 107.006851 2.02020202 107.006851 2.02020202 2.02020202 175.757576 2.02020202 175.757576 107.006851 114.751036 107.006851 67.3397039 171.717172"></polygon>
            <path d="M171.717172,4.04040404 L171.717172,103.966485 L112.368462,103.966485 L110.98898,105.86126 L68.8295415,163.636364 L68.8295415,103.966485 L4.04040404,103.966485 L4.04040404,4.04040404 L171.717172,4.04040404 Z M177.777778,0 L-1.7527646e-14,0 L-1.7527646e-14,108.795853 L65.0824235,108.795853 L65.0824235,177.777778 L115.824916,108.795853 L177.746638,108.795853 L177.746638,0 L177.777778,0 Z" id="Shape" fill="#1A1A1A"></path>
            <path d="M37.2390392,44.9158859 L37.2390392,35.4963606 C37.3416726,34.1184212 36.9249656,32.7518462 36.0702545,31.6633742 C35.5678308,31.2111619 34.9081703,30.9717895 34.2313666,30.9960932 C32.9170678,31.0235093 31.8003634,31.9609522 31.5509536,33.2462269 C31.3077405,33.9707779 31.1969017,34.7328701 31.2236939,35.4963606 L31.2236939,72.3364807 C31.1214453,73.7297814 31.5750068,75.1070387 32.4859814,76.1694671 C32.9570787,76.6216393 33.5931553,76.8626667 34.2469504,76.8367481 C35.5823018,76.8668064 36.731279,75.9022712 36.9273633,74.5866144 C37.1835641,73.8651947 37.2947613,73.1006378 37.254623,72.3364807 L37.254623,61.2409938 L33.6547661,61.2409938 L33.6547661,53.6526119 L46.2932247,53.6526119 L46.2932247,84.1613213 L40.9323989,84.1613213 L39.8415331,81.2439066 C38.1791802,83.4540483 35.5857568,84.7767927 32.8132411,84.8286023 C30.4747653,84.9825221 28.1659445,84.23837 26.3615496,82.7491684 C24.962965,81.5305237 23.8917129,79.9837501 23.2447903,78.248901 C22.4619823,76.1148365 22.1226674,73.8446662 22.2474274,71.5760907 L22.2474274,35.4963606 C22.3082897,33.2199183 22.8387416,30.9802746 23.805807,28.9166593 C25.4948219,24.6474674 29.7574457,21.9514427 34.3560369,22.243849 C36.8398829,22.1535178 39.2838621,22.884715 41.30641,24.3232829 C42.8839881,25.5454254 44.1228985,27.1476236 44.9062669,28.978732 C45.8729106,31.042493 46.4033416,33.2820482 46.4646465,35.5584333 L46.4646465,44.9779585 L37.2390392,44.9158859 Z" id="Shape" fill="#1A1A1A"></path>
            <polygon id="Shape" fill="#1A1A1A" points="56.5656566 33.4460781 56.5656566 24.2424242 82.8282828 24.2424242 82.8282828 33.4460781 74.2412189 33.4460781 74.2412189 84.8484848 65.1527205 84.8484848 65.1527205 33.4460781"></polygon>
            <polygon id="Shape" fill="#1A1A1A" points="99.6834012 24.2424242 99.6834012 45.4108281 99.9547716 45.4108281 100.361827 44.429105 107.6436 24.2424242 116.14654 24.2424242 108.126036 44.1836743 117.171717 84.8024666 108.668777 84.8024666 102.638324 58.4339983 102.397105 57.191505 102.155887 57.191505 101.673451 58.4339983 99.6532489 63.3732925 99.6532489 84.8484848 90.9090909 84.8484848 90.9090909 24.2424242"></polygon>
            <polygon id="Shape" fill="#1A1A1A" points="136.766364 53.2559639 136.021765 50.4467164 135.525366 50.4467164 135.525366 84.8331338 127.272727 84.8331338 127.272727 24.2424242 135.277166 24.2424242 144.026204 55.8656474 144.770803 58.6748948 145.282715 58.6748948 145.282715 24.2424242 153.535354 24.2424242 153.535354 84.8484848 145.530915 84.8484848"></polygon>
        </g>
    </g>
</svg>